<svg width="21" height="21" xmlns="http://www.w3.org/2000/svg" xmlns:xlink="http://www.w3.org/1999/xlink"><defs><path id="a" d="M0 17V0h17v17z"/></defs><g fill="none" fill-rule="evenodd" transform="translate(2,2)"><mask id="b" fill="#fff"><use xlink:href="#a"/></mask><path d="M8.5 0C6.192 0 5.902.01 4.995.051c-.904.041-1.522.185-2.063.395a4.166 4.166 0 00-1.505.98 4.167 4.167 0 00-.98 1.506c-.21.54-.355 1.159-.396 2.063C.01 5.902 0 6.192 0 8.5s.01 2.598.051 3.505c.041.904.185 1.522.395 2.063.217.559.508 1.033.98 1.505.473.473.947.764 1.506.98.54.21 1.159.355 2.063.396.907.041 1.197.051 3.505.051s2.598-.01 3.505-.051c.904-.041 1.522-.185 2.063-.395a4.166 4.166 0 001.505-.98c.473-.473.764-.947.98-1.506.21-.54.355-1.159.396-2.063.041-.907.051-1.197.051-3.505s-.01-2.598-.051-3.505c-.041-.904-.185-1.522-.395-2.063a4.167 4.167 0 00-.98-1.505 4.166 4.166 0 00-1.506-.98c-.54-.21-1.159-.355-2.063-.396C11.098.01 10.808 0 8.5 0m0 1.532c2.27 0 2.538.008 3.435.05.828.037 1.279.175 1.578.292.397.154.68.338.977.636.298.297.482.58.636.977.117.3.255.75.293 1.578.04.897.05 1.165.05 3.435s-.01 2.538-.05 3.435c-.038.828-.176 1.279-.293 1.578-.154.397-.338.68-.636.977-.297.298-.58.482-.977.636-.3.117-.75.255-1.578.293-.896.04-1.165.05-3.435.05s-2.539-.01-3.435-.05c-.828-.038-1.279-.176-1.578-.293a2.634 2.634 0 01-.977-.636 2.634 2.634 0 01-.636-.977c-.117-.3-.255-.75-.293-1.578-.04-.897-.05-1.165-.05-3.435s.01-2.538.05-3.435c.038-.828.176-1.279.293-1.578.154-.397.338-.68.636-.977.297-.298.58-.482.977-.636.3-.117.75-.255 1.578-.293.897-.04 1.165-.05 3.435-.05" fill="#767676" mask="url(#b)"/><path d="M8.5 11.259a2.759 2.759 0 110-5.518 2.759 2.759 0 010 5.518m0-7.009a4.25 4.25 0 100 8.5 4.25 4.25 0 000-8.5M13.975 3.971a1.014 1.014 0 11-2.028 0 1.014 1.014 0 012.028 0" fill="#767676" mask="url(#b)"/></g></svg>