<?xml version="1.0" encoding="utf-8"?>
<!-- Generator: Adobe Illustrator 19.0.0, SVG Export Plug-In . SVG Version: 6.00 Build 0)  -->
<svg version="1.1" id="Layer_2" xmlns="http://www.w3.org/2000/svg" xmlns:xlink="http://www.w3.org/1999/xlink" x="0px" y="0px"
	 width="100px" height="100px" viewBox="-74 0 100 100" style="enable-background:new -74 0 100 100;" xml:space="preserve">
<g>
	<path d="M-64,23.4h80c1.4,0,2.5-1.1,2.5-2.5s-1.1-2.5-2.5-2.5h-80c-1.4,0-2.5,1.1-2.5,2.5S-65.4,23.4-64,23.4z"/>
	<path d="M16,47.5h-80c-1.4,0-2.5,1.1-2.5,2.5s1.1,2.5,2.5,2.5h80c1.4,0,2.5-1.1,2.5-2.5S17.4,47.5,16,47.5z"/>
	<path d="M16,76.6h-80c-1.4,0-2.5,1.1-2.5,2.5s1.1,2.5,2.5,2.5h80c1.4,0,2.5-1.1,2.5-2.5S17.4,76.6,16,76.6z"/>
</g>
</svg>
