<svg width="21" height="21" xmlns="http://www.w3.org/2000/svg" xmlns:xlink="http://www.w3.org/1999/xlink"><defs><path id="a" d="M0 17V0h21v17z"/></defs><g fill="none" fill-rule="evenodd" transform="translate(0,2)"><mask id="b" fill="#fff"><use xlink:href="#a"/></mask><path d="M6.578 17c7.894 0 12.211-6.54 12.211-12.21 0-.186-.004-.371-.012-.555a8.73 8.73 0 002.14-2.222 8.567 8.567 0 01-2.464.675A4.306 4.306 0 0020.34.314a8.6 8.6 0 01-2.725 1.042 4.293 4.293 0 00-7.313 3.914A12.184 12.184 0 011.456.786a4.277 4.277 0 00-.581 2.157c0 1.489.757 2.803 1.91 3.572A4.26 4.26 0 01.84 5.978l-.001.055a4.293 4.293 0 003.443 4.207 4.304 4.304 0 01-1.938.074 4.296 4.296 0 004.009 2.98 8.612 8.612 0 01-5.33 1.838c-.347 0-.688-.02-1.024-.06A12.149 12.149 0 006.578 17" fill="#767676" mask="url(#b)"/></g></svg>