<svg width="21" height="21" xmlns="http://www.w3.org/2000/svg" xmlns:xlink="http://www.w3.org/1999/xlink"><defs><path id="a" d="M19 6.5V13H0V0h19z"/></defs><g fill="none" fill-rule="evenodd" transform="translate(1,4)"><mask id="b" fill="#fff"><use xlink:href="#a"/></mask><path d="M7.329 8.892v-5.19l4.99 2.604-4.99 2.586zm10.958-6.09s-.18-1.272-.734-1.833c-.702-.735-1.49-.74-1.85-.782C13.116 0 9.24 0 9.24 0h-.008S5.355 0 2.77.187C2.409.23 1.62.234.919.969.365 1.53.185 2.803.185 2.803S0 4.298 0 5.793v1.4c0 1.496.185 2.99.185 2.99s.18 1.273.734 1.834c.702.736 1.625.712 2.037.79 1.477.141 6.28.185 6.28.185s3.881-.006 6.466-.193c.361-.043 1.149-.046 1.851-.782.554-.56.734-1.834.734-1.834s.185-1.494.185-2.99v-1.4c0-1.495-.185-2.99-.185-2.99z" fill="#767676" mask="url(#b)"/></g></svg>